<svg width="89" height="105" fill="none" xmlns="http://www.w3.org/2000/svg"><path d="M44.48 105c-8.535 0-16.206-2.205-23.015-6.616-6.712-4.507-11.938-10.74-15.678-18.7C2.047 71.63.177 62.57.177 52.5c0-10.164 1.87-19.226 5.61-27.185S14.753 11.171 21.465 6.76C28.274 2.253 35.945 0 44.48 0c8.534 0 16.158 2.253 22.87 6.76 6.712 4.411 11.938 10.596 15.678 18.555s5.61 17.02 5.61 27.185c0 10.069-1.87 19.13-5.61 27.185-3.74 7.959-8.966 14.192-15.678 18.699C60.638 102.795 53.014 105 44.48 105Zm0-15.103c5.369 0 10.116-1.534 14.239-4.603 4.123-3.164 7.335-7.575 9.637-13.232 2.301-5.658 3.452-12.178 3.452-19.562s-1.15-13.904-3.452-19.562c-2.302-5.657-5.514-10.02-9.637-13.089-4.123-3.164-8.87-4.746-14.24-4.746-5.37 0-10.116 1.582-14.24 4.746-4.123 3.069-7.335 7.432-9.637 13.09-2.301 5.657-3.452 12.177-3.452 19.561s1.151 13.904 3.452 19.562c2.302 5.657 5.514 10.068 9.637 13.233 4.124 3.068 8.87 4.602 14.24 4.602Z" fill="#F5F5F5"/><path d="M23.623 79.11c1.055-2.877 7.077-9.925 21.575-12.802C59.697 63.431 68.26 44.014 70.37 35.383M39.732 15.246c.767 15.918 6.33 39.095 18.411 3.884" stroke="#F5F5F5" stroke-width="2" stroke-linecap="round"/><path d="M43.76 15.103c1.822 9.924 6.501 24.222 10.644 2.013m-23.877 2.158c4.555 7.048 9.896 29.63-6.904 59.548" stroke="#F5F5F5" stroke-width="2" stroke-linecap="round"/><path d="M26.212 22.582c4.075 10.788 9.004 36.707-5.034 51.205" stroke="#F5F5F5" stroke-width="2" stroke-linecap="round"/><path d="M20.314 30.78c2.877 8.919 10.932 27.186-3.02 34.378m19.561-49.192c.192 24.164 5.322 59.749 23.733 5.321m11.077 38.405c-9.11 3.692-26.639 14.872-23.877 30.061" stroke="#F5F5F5" stroke-width="2" stroke-linecap="round"/><path d="M69.363 71.199c-7.048.048-20.684 3.596-15.39 16.829" stroke="#F5F5F5" stroke-width="2" stroke-linecap="round"/><path d="M66.918 77.096c-3.98-.48-12.514.863-9.062 8.918M35.13 89.61c-4.315-6.33.316-10.874 11.363-19.274 13.808-10.5 21.575-9.925 25.746-25.603" stroke="#F5F5F5" stroke-width="2" stroke-linecap="round"/></svg>